<?xml version="1.0" encoding="utf-8"?>
<!-- Generator: Adobe Illustrator 25.0.0, SVG Export Plug-In . SVG Version: 6.00 Build 0)  -->
<svg version="1.1" id="Layer_1" xmlns="http://www.w3.org/2000/svg" xmlns:xlink="http://www.w3.org/1999/xlink" x="0px" y="0px"
	 viewBox="0 0 216 198" style="enable-background:new 0 0 216 198;" xml:space="preserve">
<style type="text/css">
	.st0{fill:#3492D0;}
	.st1{fill:#1A1A1A;}
	.st2{fill:#FFFFFF;}
	.st3{fill:none;}
</style>
<g>
	<path class="st0" d="M79.8,16.9H31.9v52.5h9.5C41.2,67.9,41,66.5,41,65c0-1.2,0.1-2.4,0.3-3.5h-3v-9.6h6.5
		c2.7-4.2,6.6-7.6,11.2-9.5H38.3v-8h19.2v7.4c2.6-0.9,5.3-1.4,8-1.4v-6h16.7L79.8,16.9z"/>
	<path class="st0" d="M83.2,42.3h-8.1c3.4,1.5,6.4,3.7,8.9,6.5L83.2,42.3z"/>
	<path class="st1" d="M160.4,88.5c4.4-12,7.9-21.9,8.3-24.6c-0.6-2.3-1.4-4.6-2.4-6.7c-2.7-6.3-6-14.1-2.6-22.2
		c1.3-3.1,3.1-6,5.4-8.5l-1.1-8l-23.4-18l-60.9,8l10.5,79.9H160.4z"/>
	<path class="st2" d="M128,74.5l-5.7-43.3l12.3-1.6l0.6,4.4l-7,0.9l4.5,34.4l7-0.9l0.6,4.4L128,74.5z"/>
	<polygon class="st0" points="147.4,21.2 168.1,18.5 144.7,0.5 	"/>
	<path class="st1" d="M165.7,88.5h18.1c3-8.4,5.7-15.3,7-17.7c2.5-4.5,18.9-5.6,22.8-15.1c3.8-9.2,1.7-19.8-5.4-26.8l-5.9,14.3
		c-2.7,6.5-6.3,4.3-11,2.4s-8.8-3-6.1-9.5l5.9-14.3c-10-0.1-19,5.9-22.8,15.1c-3.9,9.5,4.7,19.6,5.4,26.8
		C174,65.3,170.2,76.2,165.7,88.5z"/>
	<path class="st1" d="M65.6,84.5c3.9,0,7.7-1.2,10.9-3.3l7.1,7.3h9.9l-12-12.2c6.2-8.8,4.1-21-4.7-27.3s-21-4.1-27.3,4.7
		s-4.1,21,4.7,27.3C57.6,83.3,61.5,84.5,65.6,84.5L65.6,84.5z M65.6,51.4c7.5,0,13.5,6.1,13.5,13.6c0,7.5-6.1,13.5-13.6,13.5
		C58.1,78.5,52,72.5,52,65C52,57.5,58.1,51.4,65.6,51.4C65.6,51.4,65.6,51.4,65.6,51.4z"/>
	<rect x="31.9" y="92.9" class="st0" width="151.7" height="72.3"/>
	<path class="st2" d="M62.5,106.8H45.8v44.5h16.6c14.7,0,24.1-8.3,24.1-22.4S77.2,106.8,62.5,106.8z M62,142h-4.7v-25.9H62
		c7.7,0,12.8,4.4,12.8,12.8S70,142,62,142z"/>
	<path class="st2" d="M145.6,142c1.1-1.8,2-3.6,2.9-5.5h0.1c0,0,1.2,2.7,2.9,5.5l5.4,9.3h12.8l-14.3-22l14.4-22.4h-13l-5.2,9.1
		c-1.1,1.9-2,3.8-2.9,5.7h-0.1c0,0-1.3-2.9-2.9-5.7l-5-9.1h-13l14.2,22.4l-14.2,22h12.7L145.6,142z"/>
	<path class="st2" d="M124.2,150.4l2.6-4.1l-14.1-39.5h-12.1l-15.9,44.5h11.8l2.8-9.3H114l2.9,9.3h6.8L124.2,150.4z M102.1,133.2
		l2.7-8.6c0.9-2.8,1.9-7.6,1.9-7.6h0.1c0,0,1,4.9,1.9,7.6l2.7,8.6H102.1z"/>
	<path class="st1" d="M56.1,191.1c0.1,1.8-0.7,3.6-2.2,4.7c-1.7,1.2-3.9,1.8-6,1.7c-2.1,0.1-4.3-0.3-6.2-1.2v-3.5
		c1.1,0.5,2.1,0.9,3.3,1.2c1.1,0.3,2.1,0.4,3.2,0.4c1.1,0.1,2.3-0.2,3.2-0.8c0.7-0.5,1-1.4,1-2.2c0-0.8-0.3-1.6-1-2.1
		c-1.2-0.9-2.5-1.6-3.9-2.1c-1.7-0.6-3.1-1.5-4.3-2.8c-0.8-1.1-1.3-2.5-1.2-3.9c-0.1-1.7,0.7-3.4,2-4.5c1.5-1.1,3.4-1.7,5.4-1.6
		c2.2,0,4.4,0.5,6.4,1.4l-1.2,3c-1.7-0.8-3.5-1.2-5.3-1.2c-1-0.1-1.9,0.2-2.7,0.8c-0.6,0.5-0.9,1.3-0.9,2.1c0,0.5,0.1,1,0.4,1.5
		c0.3,0.5,0.7,0.9,1.2,1.2c1,0.6,2,1.1,3,1.5c1.3,0.5,2.5,1.1,3.6,1.9c0.7,0.5,1.3,1.2,1.7,2C55.9,189.2,56.1,190.2,56.1,191.1z"/>
	<path class="st1" d="M72.1,197.2h-3.7v-19.3h-6.6v-3.1h16.8v3.1h-6.6V197.2z"/>
	<path class="st1" d="M103.7,174.8v14.5c0,1.5-0.3,3-1.1,4.4c-0.7,1.2-1.8,2.2-3.1,2.9c-1.5,0.7-3.2,1-4.8,1
		c-2.4,0.1-4.7-0.6-6.5-2.2c-1.6-1.6-2.4-3.8-2.3-6.1v-14.4h3.7v14.2c-0.1,1.5,0.3,2.9,1.3,4.1c1.1,1,2.5,1.4,4,1.3
		c3.5,0,5.2-1.8,5.2-5.4v-14.1H103.7z"/>
	<path class="st1" d="M131.6,185.8c0,3.7-1,6.5-3.1,8.5c-2.1,2-5,2.9-8.9,2.9h-6.3v-22.4h6.9c3.6,0,6.3,1,8.3,2.9
		S131.6,182.3,131.6,185.8z M127.7,185.9c0-5.4-2.5-8.1-7.5-8.1H117v16.3h2.6C125,194.1,127.7,191.3,127.7,185.9z"/>
	<path class="st1" d="M140.4,197.2v-22.4h3.6v22.4H140.4z"/>
	<path class="st1" d="M173.8,185.9c0,3.7-0.9,6.5-2.7,8.5c-1.8,2-4.4,3-7.8,3c-3.4,0-6-1-7.8-3c-1.8-2-2.7-4.9-2.7-8.6
		s0.9-6.5,2.7-8.5s4.4-3,7.8-3s5.9,1,7.7,3S173.8,182.3,173.8,185.9z M156.7,185.9c0,2.8,0.6,4.9,1.7,6.3c2.6,2.7,6.9,2.9,9.6,0.3
		c0.1-0.1,0.2-0.2,0.3-0.3c1.1-1.4,1.7-3.5,1.7-6.3s-0.6-4.9-1.6-6.2c-1.2-1.5-3-2.3-4.9-2.1c-1.9-0.1-3.8,0.7-5,2.1
		C157.2,181.1,156.7,183.2,156.7,185.9z"/>
	<rect class="st3" width="216" height="198"/>
</g>
</svg>
