<svg xmlns="http://www.w3.org/2000/svg" width="216" height="198" viewBox="0 0 216 198"><path d="M62.36,116H57.69v25.76h4.67c8,0,12.74-4.67,12.74-13S70,116,62.36,116Z" style="fill:#29a9ff"/><path d="M106.93,116.9h-.1s-1,4.78-1.89,7.56L102.25,133h9.25l-2.68-8.56C107.92,121.78,106.93,116.9,106.93,116.9Z" style="fill:#29a9ff"/><path d="M32.42,92.93v71.92h150.9V92.93ZM62.76,151H46.25V106.76H62.86c14.62,0,23.87,8,23.87,22S77.38,151,62.76,151Zm61.48-.89-.5.89H117l-2.88-9.25H99.47L96.68,151H84.94l15.82-44.26h12l14,39.29Zm45.26.89H156.76l-5.37-9.25a53.79,53.79,0,0,1-2.88-5.47h-.1a57.11,57.11,0,0,1-2.89,5.47L140.35,151H127.72l14.12-21.88-14.12-22.28h12.93l5,9c1.59,2.79,2.89,5.67,2.89,5.67h.1c.89-1.89,1.79-3.78,2.88-5.67l5.17-9h12.93l-14.32,22.28Z" style="fill:#29a9ff"/><path d="M56.5,190.61a5.49,5.49,0,0,1-2.19,4.68,9.76,9.76,0,0,1-6,1.69,13.22,13.22,0,0,1-6.17-1.19V192.3a18.63,18.63,0,0,0,3.28,1.2,11.63,11.63,0,0,0,3.19.4,5.08,5.08,0,0,0,3.18-.8,2.67,2.67,0,0,0,1-2.19,2.5,2.5,0,0,0-1-2.09,14.86,14.86,0,0,0-3.88-2.09A10.33,10.33,0,0,1,43.66,184a6,6,0,0,1-1.19-3.88,5.59,5.59,0,0,1,2-4.48A8.39,8.39,0,0,1,49.83,174a15.7,15.7,0,0,1,6.37,1.39l-1.2,3a12.29,12.29,0,0,0-5.27-1.2,3.76,3.76,0,0,0-2.68.8,2.7,2.7,0,0,0-.9,2.09,2.79,2.79,0,0,0,.4,1.49,3.42,3.42,0,0,0,1.19,1.2,21.9,21.9,0,0,0,3,1.49,15.12,15.12,0,0,1,3.58,1.89,5.47,5.47,0,0,1,1.69,2A6.08,6.08,0,0,1,56.5,190.61Z" style="fill:#fff"/><path d="M72.41,196.68H68.73v-19.2H62.17V174.4H78.88v3.08H72.31v19.2Z" style="fill:#fff"/><path d="M103.84,174.4v14.42a8.61,8.61,0,0,1-1.09,4.38,7.86,7.86,0,0,1-3.08,2.88,11.43,11.43,0,0,1-4.78,1,9,9,0,0,1-6.46-2.19,8,8,0,0,1-2.29-6.07V174.5h3.68v14.12a5.6,5.6,0,0,0,1.29,4.08,5.23,5.23,0,0,0,4,1.3c3.48,0,5.17-1.79,5.17-5.38v-14h3.58Z" style="fill:#fff"/><path d="M131.6,185.34c0,3.68-1,6.47-3.09,8.46s-5,2.88-8.85,2.88h-6.27V174.4h6.87c3.58,0,6.26,1,8.25,2.88A10.65,10.65,0,0,1,131.6,185.34Zm-3.88.1q0-8.06-7.46-8.06h-3.19V193.6h2.59C125,193.6,127.72,190.81,127.72,185.44Z" style="fill:#fff"/><path d="M140.35,196.68V174.4h3.58v22.28Z" style="fill:#fff"/><path d="M173.57,185.44c0,3.68-.89,6.47-2.68,8.46s-4.38,3-7.76,3-6-1-7.76-3-2.69-4.88-2.69-8.56.9-6.46,2.69-8.45,4.38-3,7.76-3,5.87,1,7.66,3A12.62,12.62,0,0,1,173.57,185.44Zm-17,0c0,2.79.6,4.88,1.7,6.27a6.76,6.76,0,0,0,9.54.3l.3-.3c1.1-1.39,1.69-3.48,1.69-6.27s-.59-4.87-1.59-6.17a5.49,5.49,0,0,0-4.87-2.09,6.26,6.26,0,0,0-5,2.09C157.06,180.67,156.56,182.76,156.56,185.44Z" style="fill:#fff"/><path d="M163.57,25.32l-.27-2-15.5,2-3.75.49-.49-3.75L141.51,6.52,89.65,13.35l9.89,75.12h55.23c4.63-12.76,8.06-22.67,8.55-24.5-.37-1.24-1.14-3-1.83-4.68-2.86-6.72-6.77-15.94-2.62-25.94A34.28,34.28,0,0,1,163.57,25.32Z" style="fill:#fff"/><polygon points="161.74 18.8 146.54 7.14 148.31 20.57 161.74 18.8" style="fill:#29a9ff"/><polygon points="140.68 67.12 133.69 68.04 129.51 36.3 136.5 35.38 135.59 28.47 120.88 30.4 126.88 75.97 141.59 74.03 140.68 67.12" style="fill:#1a1a1a"/><path d="M165.5,88.47h18c3-8.37,5.64-15.23,7-17.57,2.52-4.44,18.77-5.59,22.69-15a24.39,24.39,0,0,0-5.38-26.67l-5.9,14.2c-2.69,6.5-6.27,4.32-10.94,2.38s-8.74-2.93-6-9.43l5.9-14.2a24.37,24.37,0,0,0-22.68,15c-3.91,9.43,4.65,19.48,5.38,26.67C173.66,65.49,170,76.27,165.5,88.47Z" style="fill:#fff"/><path d="M65.91,84.56a19.36,19.36,0,0,0,10.88-3.32l7.09,7.23h9.84L81.8,76.31a19.44,19.44,0,1,0-15.89,8.25Zm0-32.92A13.49,13.49,0,1,1,52.43,65.12,13.48,13.48,0,0,1,65.91,51.64Z" style="fill:#fff"/><path d="M38.91,65.12a27.25,27.25,0,0,1,.35-3.52h-.48V52.11H42.4A27.12,27.12,0,0,1,51,42.62H38.78v-7.9H57.85v4.76a26.88,26.88,0,0,1,7.95-1.35V34.72H82.36L80.07,17.33H32.42V69.5h6.93A26.32,26.32,0,0,1,38.91,65.12Z" style="fill:#29a9ff"/><rect x="0.69" y="0.52" width="214.86" height="196.95" style="fill:none"/></svg>